<?xml version="1.0" encoding="UTF-8" standalone="no"?>
<!DOCTYPE svg PUBLIC "-//W3C//DTD SVG 1.1//EN"
 "http://www.w3.org/Graphics/SVG/1.1/DTD/svg11.dtd">
<!-- Generated by graphviz version 2.38.0 (20140413.2041)
 -->
<!-- Title: snakemake_dag Pages: 1 -->
<svg width="200pt" height="492pt"
 viewBox="0.00 0.00 200.00 492.00" xmlns="http://www.w3.org/2000/svg" xmlns:xlink="http://www.w3.org/1999/xlink">
<g id="graph0" class="graph" transform="scale(1 1) rotate(0) translate(4 488)">
<title>snakemake_dag</title>
<polygon fill="white" stroke="none" points="-4,4 -4,-488 196,-488 196,4 -4,4"/>
<!-- 0 -->
<g id="node1" class="node"><title>0</title>
<path fill="none" stroke="#d88556" stroke-width="2" d="M126.5,-36C126.5,-36 64.5,-36 64.5,-36 58.5,-36 52.5,-30 52.5,-24 52.5,-24 52.5,-12 52.5,-12 52.5,-6 58.5,-0 64.5,-0 64.5,-0 126.5,-0 126.5,-0 132.5,-0 138.5,-6 138.5,-12 138.5,-12 138.5,-24 138.5,-24 138.5,-30 132.5,-36 126.5,-36"/>
<text text-anchor="middle" x="95.5" y="-15.5" font-family="sans" font-size="10.00">merge_counts</text>
</g>
<!-- 1 -->
<g id="node2" class="node"><title>1</title>
<path fill="none" stroke="#d6d856" stroke-width="2" d="M128,-108C128,-108 63,-108 63,-108 57,-108 51,-102 51,-96 51,-96 51,-84 51,-84 51,-78 57,-72 63,-72 63,-72 128,-72 128,-72 134,-72 140,-78 140,-84 140,-84 140,-96 140,-96 140,-102 134,-108 128,-108"/>
<text text-anchor="middle" x="95.5" y="-87.5" font-family="sans" font-size="10.00">feature_counts</text>
</g>
<!-- 1&#45;&gt;0 -->
<g id="edge1" class="edge"><title>1&#45;&gt;0</title>
<path fill="none" stroke="grey" stroke-width="2" d="M95.5,-71.6966C95.5,-63.9827 95.5,-54.7125 95.5,-46.1124"/>
<polygon fill="grey" stroke="grey" stroke-width="2" points="99.0001,-46.1043 95.5,-36.1043 92.0001,-46.1044 99.0001,-46.1043"/>
</g>
<!-- 2 -->
<g id="node3" class="node"><title>2</title>
<path fill="none" stroke="#5682d8" stroke-width="2" d="M131,-252C131,-252 60,-252 60,-252 54,-252 48,-246 48,-240 48,-240 48,-228 48,-228 48,-222 54,-216 60,-216 60,-216 131,-216 131,-216 137,-216 143,-222 143,-228 143,-228 143,-240 143,-240 143,-246 137,-252 131,-252"/>
<text text-anchor="middle" x="95.5" y="-231.5" font-family="sans" font-size="10.00">sambamba_sort</text>
</g>
<!-- 2&#45;&gt;1 -->
<g id="edge2" class="edge"><title>2&#45;&gt;1</title>
<path fill="none" stroke="grey" stroke-width="2" d="M88.0203,-215.704C84.0271,-205.522 79.5271,-192.272 77.5,-180 74.8925,-164.214 74.8925,-159.786 77.5,-144 78.9411,-135.275 81.6322,-126.056 84.5024,-117.797"/>
<polygon fill="grey" stroke="grey" stroke-width="2" points="87.8302,-118.889 88.0203,-108.296 81.2657,-116.458 87.8302,-118.889"/>
</g>
<!-- 3 -->
<g id="node4" class="node"><title>3</title>
<path fill="none" stroke="#d8ac56" stroke-width="2" d="M166.5,-180C166.5,-180 98.5,-180 98.5,-180 92.5,-180 86.5,-174 86.5,-168 86.5,-168 86.5,-156 86.5,-156 86.5,-150 92.5,-144 98.5,-144 98.5,-144 166.5,-144 166.5,-144 172.5,-144 178.5,-150 178.5,-156 178.5,-156 178.5,-168 178.5,-168 178.5,-174 172.5,-180 166.5,-180"/>
<text text-anchor="middle" x="132.5" y="-159.5" font-family="sans" font-size="10.00">samtools_index</text>
</g>
<!-- 2&#45;&gt;3 -->
<g id="edge5" class="edge"><title>2&#45;&gt;3</title>
<path fill="none" stroke="grey" stroke-width="2" d="M104.646,-215.697C108.903,-207.644 114.056,-197.894 118.766,-188.982"/>
<polygon fill="grey" stroke="grey" stroke-width="2" points="121.88,-190.581 123.459,-180.104 115.692,-187.31 121.88,-190.581"/>
</g>
<!-- 3&#45;&gt;1 -->
<g id="edge3" class="edge"><title>3&#45;&gt;1</title>
<path fill="none" stroke="grey" stroke-width="2" d="M123.354,-143.697C119.097,-135.644 113.944,-125.894 109.234,-116.982"/>
<polygon fill="grey" stroke="grey" stroke-width="2" points="112.308,-115.31 104.541,-108.104 106.12,-118.581 112.308,-115.31"/>
</g>
<!-- 4 -->
<g id="node5" class="node"><title>4</title>
<path fill="none" stroke="#56d882" stroke-width="2" d="M120.5,-324C120.5,-324 70.5,-324 70.5,-324 64.5,-324 58.5,-318 58.5,-312 58.5,-312 58.5,-300 58.5,-300 58.5,-294 64.5,-288 70.5,-288 70.5,-288 120.5,-288 120.5,-288 126.5,-288 132.5,-294 132.5,-300 132.5,-300 132.5,-312 132.5,-312 132.5,-318 126.5,-324 120.5,-324"/>
<text text-anchor="middle" x="95.5" y="-303.5" font-family="sans" font-size="10.00">hisat2_align</text>
</g>
<!-- 4&#45;&gt;2 -->
<g id="edge4" class="edge"><title>4&#45;&gt;2</title>
<path fill="none" stroke="grey" stroke-width="2" d="M95.5,-287.697C95.5,-279.983 95.5,-270.712 95.5,-262.112"/>
<polygon fill="grey" stroke="grey" stroke-width="2" points="99.0001,-262.104 95.5,-252.104 92.0001,-262.104 99.0001,-262.104"/>
</g>
<!-- 5 -->
<g id="node6" class="node"><title>5</title>
<path fill="none" stroke="#59d856" stroke-width="2" d="M113,-396C113,-396 78,-396 78,-396 72,-396 66,-390 66,-384 66,-384 66,-372 66,-372 66,-366 72,-360 78,-360 78,-360 113,-360 113,-360 119,-360 125,-366 125,-372 125,-372 125,-384 125,-384 125,-390 119,-396 113,-396"/>
<text text-anchor="middle" x="95.5" y="-375.5" font-family="sans" font-size="10.00">cutadapt</text>
</g>
<!-- 5&#45;&gt;4 -->
<g id="edge6" class="edge"><title>5&#45;&gt;4</title>
<path fill="none" stroke="grey" stroke-width="2" d="M95.5,-359.697C95.5,-351.983 95.5,-342.712 95.5,-334.112"/>
<polygon fill="grey" stroke="grey" stroke-width="2" points="99.0001,-334.104 95.5,-324.104 92.0001,-334.104 99.0001,-334.104"/>
</g>
<!-- 6 -->
<g id="node7" class="node"><title>6</title>
<path fill="none" stroke="#d85656" stroke-width="2" d="M75,-484C75,-484 12,-484 12,-484 6,-484 0,-478 0,-472 0,-472 0,-444 0,-444 0,-438 6,-432 12,-432 12,-432 75,-432 75,-432 81,-432 87,-438 87,-444 87,-444 87,-472 87,-472 87,-478 81,-484 75,-484"/>
<text text-anchor="middle" x="43.5" y="-472" font-family="sans" font-size="10.00">copy_input</text>
<text text-anchor="middle" x="43.5" y="-461" font-family="sans" font-size="10.00">pair: R1</text>
<text text-anchor="middle" x="43.5" y="-450" font-family="sans" font-size="10.00">replicate: Rep1</text>
<text text-anchor="middle" x="43.5" y="-439" font-family="sans" font-size="10.00">sample: S1</text>
</g>
<!-- 6&#45;&gt;5 -->
<g id="edge7" class="edge"><title>6&#45;&gt;5</title>
<path fill="none" stroke="grey" stroke-width="2" d="M60.2394,-431.891C66.0289,-423.207 72.5231,-413.465 78.3455,-404.732"/>
<polygon fill="grey" stroke="grey" stroke-width="2" points="81.258,-406.673 83.8929,-396.411 75.4337,-402.79 81.258,-406.673"/>
</g>
<!-- 7 -->
<g id="node8" class="node"><title>7</title>
<path fill="none" stroke="#d85656" stroke-width="2" d="M180,-484C180,-484 117,-484 117,-484 111,-484 105,-478 105,-472 105,-472 105,-444 105,-444 105,-438 111,-432 117,-432 117,-432 180,-432 180,-432 186,-432 192,-438 192,-444 192,-444 192,-472 192,-472 192,-478 186,-484 180,-484"/>
<text text-anchor="middle" x="148.5" y="-472" font-family="sans" font-size="10.00">copy_input</text>
<text text-anchor="middle" x="148.5" y="-461" font-family="sans" font-size="10.00">pair: R2</text>
<text text-anchor="middle" x="148.5" y="-450" font-family="sans" font-size="10.00">replicate: Rep1</text>
<text text-anchor="middle" x="148.5" y="-439" font-family="sans" font-size="10.00">sample: S1</text>
</g>
<!-- 7&#45;&gt;5 -->
<g id="edge8" class="edge"><title>7&#45;&gt;5</title>
<path fill="none" stroke="grey" stroke-width="2" d="M131.439,-431.891C125.538,-423.207 118.919,-413.465 112.984,-404.732"/>
<polygon fill="grey" stroke="grey" stroke-width="2" points="115.846,-402.715 107.33,-396.411 110.056,-406.649 115.846,-402.715"/>
</g>
</g>
</svg>
